<?xml version="1.0" encoding="utf-8"?>
<!-- Generator: Adobe Illustrator 15.0.0, SVG Export Plug-In . SVG Version: 6.00 Build 0)  -->
<!DOCTYPE svg PUBLIC "-//W3C//DTD SVG 1.1//EN" "http://www.w3.org/Graphics/SVG/1.1/DTD/svg11.dtd">
<svg version="1.1" id="图层_1" xmlns="http://www.w3.org/2000/svg" xmlns:xlink="http://www.w3.org/1999/xlink" x="0px" y="0px"
	 width="345.459px" height="132.754px" viewBox="0 0 345.459 132.754" enable-background="new 0 0 345.459 132.754"
	 xml:space="preserve">
<path opacity="0.3" fill="#00FFF6" enable-background="new    " d="M343.546,45.172H237l-19.395-24.629h-92.5l-16.884,24.629H1.915
	C0.857,45.172,0,46.028,0,47.086v83.754c0,1.06,0.857,1.914,1.915,1.914h341.629c1.059,0,1.915-0.854,1.915-1.914V47.086
	C345.46,46.028,344.603,45.172,343.546,45.172z"/>
<g>
	<g>
		<path fill="#4ABCC2" d="M58.264,122.363c0,1.079-0.875,1.954-1.954,1.954H11.711c-1.079,0-1.953-0.875-1.953-1.954V58.232
			c0-1.079,0.875-1.953,1.953-1.953H56.31c1.079,0,1.954,0.875,1.954,1.953V122.363z"/>
		<path opacity="0.25" enable-background="new    " d="M58.264,90.297c-9.548,0-40.923,0-48.506,0V58.231
			c0-1.079,0.875-1.953,1.953-1.953H56.31c1.079,0,1.954,0.875,1.954,1.953V90.297z"/>
		<rect x="9.758" y="85.922" width="2.917" height="8.75"/>
		<rect x="55.347" y="85.922" width="2.917" height="8.75"/>
		<rect x="12.133" y="89.34" width="45.875" height="1.916"/>
	</g>
	<g>
		<path fill="#4ABCC2" d="M113.747,122.363c0,1.079-0.875,1.954-1.954,1.954H67.195c-1.079,0-1.953-0.875-1.953-1.954V58.232
			c0-1.079,0.875-1.953,1.953-1.953h44.599c1.079,0,1.954,0.875,1.954,1.953L113.747,122.363L113.747,122.363z"/>
		<path opacity="0.25" enable-background="new    " d="M113.747,90.297c-9.548,0-40.923,0-48.506,0V58.231
			c0-1.079,0.875-1.953,1.953-1.953h44.599c1.079,0,1.954,0.875,1.954,1.953V90.297z"/>
		<rect x="65.241" y="85.922" width="2.917" height="8.75"/>
		<rect x="110.83" y="85.922" width="2.917" height="8.75"/>
		<rect x="67.616" y="89.34" width="45.875" height="1.916"/>
	</g>
	<g>
		<path fill="#4ABCC2" d="M169.231,122.363c0,1.079-0.875,1.954-1.954,1.954h-44.599c-1.079,0-1.953-0.875-1.953-1.954V58.232
			c0-1.079,0.875-1.953,1.953-1.953h44.599c1.079,0,1.954,0.875,1.954,1.953V122.363z"/>
		<path opacity="0.25" enable-background="new    " d="M169.231,90.297c-9.549,0-40.923,0-48.506,0V58.231
			c0-1.079,0.875-1.953,1.953-1.953h44.599c1.079,0,1.954,0.875,1.954,1.953V90.297z"/>
		<rect x="120.725" y="85.922" width="2.917" height="8.75"/>
		<rect x="166.314" y="85.922" width="2.917" height="8.75"/>
		<rect x="123.1" y="89.34" width="45.875" height="1.916"/>
	</g>
	<g>
		<path fill="#4ABCC2" d="M224.714,122.363c0,1.079-0.875,1.954-1.953,1.954h-44.6c-1.079,0-1.953-0.875-1.953-1.954V58.232
			c0-1.079,0.875-1.953,1.953-1.953h44.6c1.078,0,1.953,0.875,1.953,1.953V122.363z"/>
		<path opacity="0.25" enable-background="new    " d="M224.714,90.297c-9.548,0-40.923,0-48.506,0V58.231
			c0-1.079,0.875-1.953,1.953-1.953h44.6c1.078,0,1.953,0.875,1.953,1.953V90.297z"/>
		<rect x="176.208" y="85.922" width="2.917" height="8.75"/>
		<rect x="221.798" y="85.922" width="2.916" height="8.75"/>
		<rect x="178.583" y="89.34" width="45.875" height="1.916"/>
	</g>
	<g>
		<path fill="#4ABCC2" d="M280.197,122.363c0,1.079-0.875,1.954-1.954,1.954h-44.6c-1.078,0-1.952-0.875-1.952-1.954V58.232
			c0-1.079,0.875-1.953,1.952-1.953h44.6c1.079,0,1.954,0.875,1.954,1.953V122.363z"/>
		<path opacity="0.25" enable-background="new    " d="M280.197,90.297c-9.548,0-40.923,0-48.506,0V58.231
			c0-1.079,0.875-1.953,1.952-1.953h44.6c1.079,0,1.954,0.875,1.954,1.953V90.297z"/>
		<rect x="231.691" y="85.922" width="2.917" height="8.75"/>
		<rect x="277.28" y="85.922" width="2.917" height="8.75"/>
		<rect x="234.066" y="89.34" width="45.875" height="1.916"/>
	</g>
	<g>
		<path fill="#4ABCC2" d="M335.681,122.363c0,1.079-0.875,1.954-1.955,1.954h-44.599c-1.079,0-1.952-0.875-1.952-1.954V58.232
			c0-1.079,0.875-1.953,1.952-1.953h44.599c1.08,0,1.955,0.875,1.955,1.953V122.363z"/>
		<path opacity="0.25" enable-background="new    " d="M335.681,90.297c-9.549,0-40.924,0-48.506,0V58.231
			c0-1.079,0.875-1.953,1.952-1.953h44.599c1.08,0,1.955,0.875,1.955,1.953V90.297z"/>
		<rect x="287.175" y="85.922" width="2.918" height="8.75"/>
		<rect x="332.763" y="85.922" width="2.918" height="8.75"/>
		<rect x="289.55" y="89.34" width="45.875" height="1.916"/>
	</g>
</g>
<g>
	<path fill="#FFFFFF" d="M139.501,35.918c-0.771-0.618-2.335-1.505-3.55-2.104l0.771-1.062c1.196,0.541,2.778,1.389,3.589,1.949
		L139.501,35.918z M141.219,38.465c-1.022,2.026-2.373,4.419-3.492,6.214l-1.197-0.984c1.043-1.447,2.528-3.994,3.647-6.175
		L141.219,38.465z M140.582,30.669c-0.791-0.617-2.373-1.543-3.608-2.142l0.791-1.042c1.196,0.541,2.817,1.409,3.647,2.007
		L140.582,30.669z M153.549,42.922v1.37h-12.6v-1.37h5.634v-4.959H142.3v-1.37h4.283V32.29h-5.056v-1.37h11.577v1.37h-5.036v4.303
		h4.342v1.37h-4.342v4.959H153.549z M147.239,30.843c-0.271-0.83-0.946-2.2-1.583-3.203l1.293-0.463
		c0.656,0.984,1.39,2.296,1.659,3.126L147.239,30.843z"/>
	<path fill="#FFFFFF" d="M172.804,36.246h-2.065v6.889c0,0.829-0.192,1.235-0.714,1.485c-0.521,0.231-1.389,0.271-2.799,0.271
		c-0.076-0.386-0.289-1.003-0.463-1.37c1.004,0.039,1.931,0.039,2.182,0.02c0.289-0.02,0.386-0.116,0.386-0.405v-6.889h-3.106
		c-0.114,2.856-0.616,6.271-2.219,8.683c-0.213-0.29-0.791-0.811-1.08-0.984c1.446-2.219,1.813-5.152,1.909-7.699h-1.968v6.812
		c0,0.791-0.193,1.196-0.695,1.428c-0.539,0.231-1.369,0.251-2.701,0.251c-0.058-0.367-0.289-0.945-0.463-1.293
		c0.945,0.02,1.834,0.02,2.104,0c0.271,0,0.367-0.097,0.367-0.386v-6.812h-2.74c-0.135,2.875-0.675,6.31-2.47,8.76
		c-0.212-0.309-0.752-0.849-1.042-1.003c1.602-2.238,2.026-5.19,2.143-7.757h-2.123v-1.39h2.161v-0.424v-5.905h5.461v6.329h2.006
		v-0.405v-5.924h5.866v6.329h2.064V36.246L172.804,36.246z M161.476,34.856v-4.997h-2.7v4.573v0.424H161.476z M169.33,34.856v-4.997
		h-3.067v4.592v0.405H169.33z"/>
	<path fill="#FFFFFF" d="M190.726,42.942c0,0.926-0.25,1.351-0.867,1.602c-0.655,0.231-1.775,0.251-3.59,0.231
		c-0.059-0.386-0.289-1.003-0.481-1.39c1.351,0.058,2.662,0.039,3.011,0.039c0.385-0.02,0.521-0.135,0.521-0.502v-3.917h-5.188
		v5.692h-1.43v-5.692h-4.822c-0.289,2.142-0.947,4.341-2.414,5.981c-0.211-0.289-0.789-0.772-1.1-0.945
		c2.123-2.393,2.316-5.789,2.316-8.471v-6.946h14.047v14.318H190.726z M182.699,37.636v-3.203h-4.61v1.138
		c0,0.637-0.021,1.351-0.078,2.065H182.699z M178.089,29.995v3.087h4.61v-3.087H178.089z M189.317,29.995h-5.189v3.087h5.189V29.995
		z M189.317,37.636v-3.203h-5.189v3.203H189.317z"/>
	<path fill="#FFFFFF" d="M209.229,30.226v7.795h-1.447v-1.254h-10.111c-0.213,2.759-0.867,5.943-2.759,8.22
		c-0.231-0.25-0.868-0.714-1.216-0.868c2.334-2.836,2.586-6.831,2.586-9.725v-4.167h6.232c-0.231-0.753-0.657-1.853-1.043-2.702
		l1.39-0.366c0.442,0.887,0.944,2.045,1.177,2.797l-0.887,0.271L209.229,30.226L209.229,30.226z M207.782,35.417v-3.84h-10.034
		v2.817c0,0.328,0,0.656-0.021,1.023H207.782z"/>
</g>
<g>
	<path fill="#00DBDB" d="M51.88,39.632V2.641C53.247,2.386,54.334,1.343,54.661,0h-6.862c0.327,1.343,1.414,2.386,2.781,2.641
		v36.991c-2.684,0.322-4.767,2.603-4.767,5.374c0,2.992,2.425,5.417,5.417,5.417c2.992,0,5.417-2.425,5.417-5.417
		C56.646,42.235,54.564,39.954,51.88,39.632z"/>
	<path fill="#00DBDB" d="M294.88,39.632V2.641c1.367-0.255,2.454-1.298,2.781-2.641H290.8c0.326,1.343,1.412,2.386,2.78,2.641
		v36.991c-2.685,0.322-4.767,2.603-4.767,5.374c0,2.992,2.426,5.417,5.416,5.417c2.992,0,5.417-2.425,5.417-5.417
		C299.646,42.235,297.563,39.954,294.88,39.632z"/>
</g>
</svg>
