<?xml version="1.0" encoding="utf-8"?>
<!-- Generator: Adobe Illustrator 15.0.0, SVG Export Plug-In . SVG Version: 6.00 Build 0)  -->
<!DOCTYPE svg PUBLIC "-//W3C//DTD SVG 1.1//EN" "http://www.w3.org/Graphics/SVG/1.1/DTD/svg11.dtd">
<svg version="1.1" id="图层_1" xmlns="http://www.w3.org/2000/svg" xmlns:xlink="http://www.w3.org/1999/xlink" x="0px" y="0px"
	 width="841.89px" height="180.609px" viewBox="0 0 841.89 180.609" enable-background="new 0 0 841.89 180.609"
	 xml:space="preserve">
<polygon fill="#FFFFFF" points="55.959,58.802 47.87,58.802 47.87,53.23 70.609,53.23 70.609,58.802 62.565,58.802 62.565,82.531 
	55.959,82.531 "/>
<polygon fill="#FFFFFF" points="77.2,53.229 95.58,53.229 95.58,58.802 83.851,58.802 83.851,64.689 93.828,64.689 93.828,70.218 
	83.851,70.218 83.851,76.958 96.03,76.958 96.03,82.531 77.2,82.531 "/>
<path fill="#FFFFFF" d="M115.546,52.69c3.641,0,6.696,1.798,8.673,3.82l-3.64,4.089c-1.483-1.347-2.876-2.201-4.943-2.201
	c-4.09,0-7.28,3.55-7.28,9.437c0,6.022,2.831,9.527,7.1,9.527c2.427,0,4.135-1.033,5.573-2.607l3.64,4
	c-2.427,2.831-5.663,4.315-9.303,4.315c-7.595,0-13.797-5.169-13.797-15.01C101.569,58.353,107.996,52.69,115.546,52.69"/>
<polygon fill="#FFFFFF" points="131.368,53.229 138.019,53.229 138.019,64.51 148.131,64.51 148.131,53.229 154.737,53.229 
	154.737,82.531 148.131,82.531 148.131,70.307 138.019,70.307 138.019,82.531 131.368,82.531 "/>
<path fill="#FFFFFF" d="M71.841,124.916l-5.624-10.571h-3.599v10.571h-6.658V95.584h10.572c6.208,0,11.336,2.159,11.336,9.132
	c0,4.319-2.114,7.063-5.218,8.458l6.614,11.741H71.841z M62.618,109.081h3.374c3.464,0,5.354-1.484,5.354-4.364
	c0-2.879-1.89-3.869-5.354-3.869h-3.374V109.081z"/>
<rect x="88.615" y="95.583" fill="#FFFFFF" width="6.658" height="29.331"/>
<path fill="#FFFFFF" d="M108.449,116.683c2.069,1.8,4.769,3.06,7.198,3.06c2.744,0,4.094-1.081,4.094-2.835
	c0-1.844-1.665-2.429-4.229-3.509l-3.779-1.619c-3.059-1.215-5.938-3.735-5.938-8.008c0-4.859,4.364-8.729,10.437-8.729
	c3.374,0,6.928,1.351,9.447,3.869l-3.329,4.185c-1.934-1.485-3.779-2.341-6.118-2.341c-2.249,0-3.734,0.99-3.734,2.655
	c0,1.799,1.934,2.429,4.499,3.464l3.734,1.53c3.553,1.439,5.803,3.824,5.803,7.963c0,4.858-4.048,9.086-11.022,9.086
	c-3.824,0-7.873-1.438-10.887-4.228L108.449,116.683z"/>
<polygon fill="#FFFFFF" points="135.886,95.584 154.286,95.584 154.286,101.163 142.544,101.163 142.544,107.056 152.532,107.056 
	152.532,112.589 142.544,112.589 142.544,119.337 154.736,119.337 154.736,124.916 135.886,124.916 "/>
<rect x="97.913" y="7.639" fill="#FFFFFF" width="6.78" height="13.466"/>
<rect x="97.913" y="157.912" fill="#FFFFFF" width="6.78" height="13.466"/>
<rect x="21.402" y="85.683" fill="#FFFFFF" width="13.466" height="6.779"/>
<rect x="167.739" y="85.683" fill="#FFFFFF" width="13.466" height="6.779"/>
<path fill="#FFFFFF" d="M29.146,112.786h-6.823c8.079,25.85,29.138,46.925,55.703,55.613v-6.442
	C54.286,154.19,36.444,135.653,29.146,112.786"/>
<path fill="#FFFFFF" d="M22.323,66.232h6.823c7.298-22.867,25.14-41.405,48.88-49.17v-6.444
	C51.461,19.307,30.402,40.382,22.323,66.232"/>
<path fill="#FFFFFF" d="M162.867,43.985c5.091,6.823,8.932,14.319,11.47,22.247h7.098c-2.737-9.402-7.147-18.277-13.134-26.301
	c-10.39-13.927-27.226-24.446-43.721-29.621v6.468C139.726,21.53,153.323,31.193,162.867,43.985"/>
<path fill="#FFFFFF" d="M174.336,112.786c-2.537,7.928-6.379,15.424-11.47,22.247c-9.544,12.792-23.141,22.454-38.287,27.206v6.469
	c16.496-5.175,33.332-15.694,43.721-29.62c5.988-8.026,10.397-16.901,13.134-26.302H174.336z"/>
<path fill="#FFFFFF" d="M208.013,57.357v-6.96h31.777c-0.605-2.217-1.21-4.133-1.815-5.75l10.591-0.909
	c0.199,0.809,0.501,2.02,0.908,3.632c0.198,1.21,0.401,2.222,0.605,3.027h30.869v6.96H208.013z M227.683,108.502v-16.04h33.898
	v16.04h2.117c3.631,0.198,5.344-1.211,5.145-4.236v-16.04h-48.421v27.844h-8.777V81.266h65.974v25.422
	c0.199,5.849-2.827,8.875-9.08,9.079c-2.826,0.198-6.656,0.303-11.499,0.303c-0.203-0.408-0.303-1.113-0.303-2.119
	c-0.605-2.223-1.111-4.039-1.513-5.448H227.683z M218.908,61.292h51.146v16.04h-51.146V61.292z M227.683,71.884h33.595v-4.842
	h-33.595V71.884z M236.158,103.358h16.646v-5.447h-16.646V103.358z"/>
<path fill="#FFFFFF" d="M291.238,109.713l-6.658-2.421c2.421-4.64,4.739-9.58,6.961-14.829l6.657,2.42
	C295.976,100.332,293.66,105.278,291.238,109.713 M287.304,58.567v-7.263h13.619c-0.204-1.007-0.71-2.52-1.514-4.539
	c-0.203-0.803-0.406-1.408-0.605-1.816l9.381-0.907c1.008,3.026,1.713,5.447,2.118,7.262h12.107v7.263h-9.685l7.263,2.725
	l-5.143,7.867h9.079v7.265h-14.226v6.355h13.014v7.265h-13.014v16.645c0.2,5.645-2.623,8.572-8.473,8.775
	c-1.414,0.198-3.835,0.304-7.262,0.304c-0.409-3.435-1.014-6.054-1.817-7.869h3.027h2.42c2.62,0.198,3.831-0.909,3.632-3.33V90.043
	h-13.921v-7.265h13.921v-6.355h-15.737v-7.265h9.685c-1.619-2.618-3.33-5.145-5.145-7.565l5.75-3.027H287.304z M302.74,66.739
	l-4.542,2.42h8.475c2.015-3.63,3.934-7.158,5.75-10.592h-15.435c0.805,1.212,1.915,2.829,3.33,4.842
	C301.324,64.824,302.133,65.936,302.74,66.739 M317.265,106.385l-6.355-11.197l6.355-3.028c2.217,3.633,4.335,7.164,6.356,10.594
	c2.014-5.646,3.026-13.619,3.026-23.91V49.792c10.289-0.605,19.671-1.613,28.146-3.027l2.722,7.869
	c-7.669,1.21-15.131,2.118-22.394,2.723v13.014h23.605v8.17h-7.567v37.226h-8.17V78.541h-7.868v0.908
	c0.403,15.739-2.322,28.045-8.171,36.922c-0.809-0.406-2.02-1.212-3.631-2.422c-1.817-1.012-3.132-1.814-3.936-2.42
	c0.402-0.604,0.907-1.618,1.514-3.026c1.21-2.016,2.118-3.73,2.724-5.146L317.265,106.385z"/>
<path fill="#FFFFFF" d="M363.568,65.529v-8.172h8.17v-12.71h8.777v12.71h6.962v8.172h-6.962v12.407l7.264-1.513
	c0,3.026,0.1,5.954,0.302,8.777c-2.42,0.406-4.946,0.908-7.566,1.514v20.275c0.2,5.646-2.42,8.574-7.868,8.778
	c-2.625,0.198-5.145,0.302-7.565,0.302c-0.204-1.211-0.507-3.026-0.909-5.446c-0.407-1.415-0.605-2.322-0.605-2.725h5.144
	c2.218,0,3.226-1.21,3.026-3.632V88.832l-8.473,2.118l-0.605-9.684c1.408-0.199,3.83-0.605,7.263-1.21
	c0.804-0.2,1.409-0.303,1.815-0.303V65.529H363.568z M389.897,63.107v-8.17h16.949V44.344h9.078v10.593h19.066v8.17h-19.066v9.382
	h16.039v8.172c-3.835,8.677-8.374,15.333-13.617,19.974c4.84,3.024,10.79,5.447,17.854,7.263c-0.407,0.802-1.111,2.217-2.118,4.237
	c-1.012,1.814-1.816,3.224-2.422,4.237c-8.071-3.23-14.827-6.56-20.276-9.987c-5.249,3.224-12.815,6.757-22.697,10.592
	c-1.413-2.624-3.026-5.349-4.842-8.172c8.472-2.42,15.33-5.146,20.579-8.17c-4.643-5.042-8.776-11.297-12.409-18.765l3.633-1.513
	h-5.146v-7.869h16.344v-9.382H389.897z M422.581,80.358h-22.092c3.027,5.854,6.659,10.896,10.895,15.132
	C416.227,91.253,419.958,86.212,422.581,80.358"/>
<path fill="#FFFFFF" d="M442.557,69.766v-8.777h29.657V44.345h9.08v16.644h17.251c-1.21-1.21-3.33-3.125-6.356-5.75
	c-2.221-2.015-3.834-3.429-4.841-4.237l5.748-5.447c1.816,1.413,4.438,3.632,7.869,6.657c1.815,1.617,3.226,2.828,4.237,3.633
	l-5.447,5.144h11.803v8.777H484.32c6.658,12.914,16.442,22.598,29.354,29.053c-0.405,1.011-1.11,2.524-2.117,4.539
	c-1.011,2.019-1.716,3.532-2.118,4.54c-12.914-7.463-22.296-16.845-28.146-28.145v36.92h-9.08V80.056
	c-5.649,11.702-14.728,21.288-27.235,28.75c-0.408-0.604-0.909-1.311-1.514-2.117c-0.605-1.211-1.719-3.33-3.33-6.356
	c13.718-7.666,23.401-17.855,29.054-30.566H442.557z"/>
<path fill="#FFFFFF" d="M523.662,116.977c-0.808-0.809-1.918-2.02-3.328-3.633c-1.414-1.414-2.42-2.42-3.025-3.026
	c2.014-3.429,3.224-6.96,3.631-10.592c0.604-3.83,0.907-10.186,0.907-19.065V47.37h23.606v59.923c0,4.842-2.322,7.565-6.96,8.171
	h-3.33c-2.019,0.199-3.532,0.303-4.539,0.303c-0.202-1.413-0.506-3.328-0.908-5.751c-0.202-1.211-0.302-1.92-0.302-2.117h5.143
	c2.422,0.197,3.528-0.805,3.331-3.027V93.069h-8.172C529.31,102.148,527.294,110.116,523.662,116.977 M529.716,66.437h8.172V54.634
	h-8.172V66.437z M529.716,82.476v3.329h8.172V73.699h-8.172V82.476z M587.217,116.07c-4.643-2.422-9.283-5.351-13.922-8.777
	c-3.025,2.62-6.861,5.447-11.5,8.474l-3.025-4.842v5.749h-8.172V47.672h36.619c0,1.415-0.104,3.434-0.303,6.052
	c0,2.829-0.104,4.843-0.303,6.054c-0.204,6.658-3.632,9.987-10.289,9.987h-10.594c-0.203-1.211-0.605-2.922-1.21-5.144
	c0-0.805-0.104-1.514-0.303-2.12c2.62,0.205,5.448,0.303,8.475,0.303c3.83,0.204,5.749-1.106,5.749-3.935v-3.631h-19.67v18.763
	h28.75v8.475c-2.222,7.467-5.145,13.723-8.775,18.765c3.429,3.024,7.663,5.447,12.71,7.263
	C589.835,111.123,588.427,113.648,587.217,116.07 M558.77,107.898c3.631-2.016,6.656-4.237,9.078-6.657
	c-2.827-3.831-5.55-9.383-8.17-16.647l5.143-3.025h-6.051V107.898z M579.651,81.568h-13.316c2.014,5.447,4.338,10.091,6.96,13.922
	C575.513,92.264,577.631,87.622,579.651,81.568"/>
<path fill="#FFFFFF" d="M598.111,83.686c-0.204-0.401-0.507-1.105-0.907-2.118c-1.212-2.62-2.02-4.54-2.422-5.75
	c12.305-1.612,21.687-3.329,28.146-5.145c-3.837-2.421-7.566-5.447-11.197-9.079c-1.21,1.21-3.434,3.13-6.659,5.75
	c-1.21,0.809-2.117,1.513-2.723,2.119c-1.012-1.211-2.624-2.922-4.843-5.145c-0.809-0.804-1.314-1.31-1.514-1.514
	c9.079-5.849,16.344-12.105,21.791-18.762l9.985,1.21c-0.604,0.605-1.513,1.715-2.723,3.328c-0.605,0.607-1.012,1.112-1.21,1.514
	h36.618v7.868c-5.448,5.046-10.999,9.282-16.645,12.711c6.657,1.618,15.027,2.928,25.118,3.935
	c-0.809,1.413-1.815,3.933-3.026,7.565c-0.202,0.203-0.302,0.407-0.302,0.604c-14.329-1.815-25.224-4.132-32.685-6.96
	C624.641,79.048,613.041,81.672,598.111,83.686 M632.31,115.463c0-1.617-0.507-4.341-1.513-8.171
	c3.631,0.202,8.17,0.303,13.618,0.303c4.436,0.203,6.659-1.816,6.659-6.053c0.4-2.423,0.604-4.843,0.604-7.265h-22.092
	c-1.817,9.89-11.402,17.555-28.75,23.001c-0.408-0.809-1.111-2.019-2.12-3.631c-1.616-2.421-2.625-4.039-3.026-4.843
	c14.12-2.823,22.191-7.665,24.212-14.527H600.23v-7.564h21.486c0.402-2.016,0.606-4.237,0.606-6.657h9.382l-0.605,6.657h30.264
	c-0.204,5.649-0.507,10.795-0.909,15.435c0,9.079-4.944,13.514-14.829,13.315H632.31z M648.652,57.357H618.69
	c4.035,4.039,8.876,7.264,14.526,9.685C637.453,65.429,642.6,62.199,648.652,57.357"/>
<path fill="#FFFFFF" d="M675.586,60.989v-7.264h10.896v-9.38h8.172v9.38h9.382v7.264h-9.382v9.08h10.592v7.262h-8.172v10.29h8.172
	v7.567h-8.172v11.197c3.025,0.808,6.962,1.21,11.803,1.21c5.244,0.203,11.901,0.203,19.974,0c8.877,0,14.627-0.101,17.251-0.304
	c-0.604,1.211-1.315,3.429-2.117,6.659c-0.204,0.402-0.305,0.704-0.305,0.907h-9.683c-11.501,0.2-20.08,0.2-25.725,0
	c-13.519,0.2-22.093-3.23-25.724-10.29c-0.81,4.237-2.323,8.272-4.541,12.106c-2.223-1.816-4.138-3.736-5.748-5.749
	c3.224-6.056,4.737-15.838,4.538-29.356l7.566,0.302c0,4.842-0.204,8.88-0.605,12.105c1.211,3.229,3.025,5.954,5.446,8.172V77.331
	h-16.038v-7.262h13.315v-9.08H675.586z M723.706,73.094l-1.514-7.263h7.565c3.026,0.203,4.541-1.21,4.541-4.236
	c0-1.008,0.098-2.318,0.303-3.936v-3.025h-10.896c-0.204,8.677-4.541,15.538-13.014,20.58c-0.204-0.2-0.407-0.403-0.606-0.606
	c-1.814-2.422-3.433-4.237-4.841-5.449c7.059-3.223,10.592-8.065,10.592-14.525h-8.776V47.37h35.711c0,1.21-0.104,3.027-0.303,5.447
	c-0.204,4.645-0.406,8.072-0.604,10.29c0,6.659-3.027,9.889-9.08,9.685C730.563,72.996,727.537,73.094,723.706,73.094
	 M708.876,77.331h32.686v25.119h-32.686V77.331z M716.745,95.188h16.948V84.292h-16.948V95.188z"/>
<path fill="#FFFFFF" d="M751.244,62.501v-8.473h31.475c-0.809-2.422-1.815-5.344-3.026-8.777l10.29-1.21l3.33,9.987h29.354v8.473
	h-30.869v9.382h26.331v25.724c0.197,7.063-3.231,10.593-10.29,10.593c-1.014,0-2.725,0.099-5.146,0.302h-5.144
	c0-0.407-0.104-0.908-0.302-1.513c-0.81-3.225-1.415-5.547-1.817-6.961c1.008,0,2.521,0.104,4.54,0.304h4.237
	c3.428,0.203,5.04-1.514,4.842-5.145v-14.83h-17.251v36.315h-9.685V80.358H765.47v28.75h-9.382V71.884h26.025v-9.382H751.244z"/>
<path fill="#FFFFFF" d="M223.234,140.39c1.217,1.436,3.066,2.696,4.892,3.349c-0.37,0.305-0.826,0.87-1.065,1.239
	c-2.109-0.87-4.218-2.675-5.523-4.588h-6.806c-1.37,2.022-3.566,3.892-5.675,4.871c-0.239-0.392-0.674-0.936-1.043-1.239
	c1.805-0.718,3.674-2.088,4.914-3.632h-4.697v-1.37h4.305v-6.936h-3.305v-1.349h3.305v-2.088h1.587v2.088h7.894v-2.088h1.63v2.088
	h3.262v1.349h-3.262v6.936h4.197v1.37H223.234z M218.798,146.522h7.502v1.37h-16.396v-1.37h7.285v-2.283h-4.436v-1.326h4.436v-1.827
	h1.609v1.827h4.544v1.326h-4.544V146.522z M214.123,132.084v1.456h7.894v-1.456H214.123z M214.123,136.259h7.894v-1.501h-7.894
	V136.259z M214.123,139.02h7.894v-1.543h-7.894V139.02z"/>
<path fill="#FFFFFF" d="M273.453,138.846h-8.589v7.285c0,1.195-0.327,1.695-1.131,1.956c-0.805,0.282-2.218,0.305-4.414,0.305
	c-0.109-0.456-0.435-1.218-0.696-1.674c1.783,0.043,3.436,0.043,3.936,0.021c0.457-0.021,0.63-0.152,0.63-0.608v-7.285h-8.98v-1.587
	h8.98v-5.479h-7.48v-1.588h16.222v1.588h-7.067v5.479h8.589V138.846z"/>
<path fill="#FFFFFF" d="M318.811,146.304v1.545h-18.439v-18.027h17.896v1.545h-16.308v14.938H318.811z M314.94,144.782
	c-1.087-1.348-2.762-3.108-4.653-4.893c-1.827,1.893-3.827,3.588-5.85,4.893c-0.283-0.304-0.892-0.934-1.283-1.195
	c2.109-1.261,4.175-2.913,6.001-4.784c-1.761-1.63-3.61-3.261-5.306-4.652l1.13-0.957c1.653,1.326,3.501,2.913,5.241,4.479
	c1.479-1.631,2.783-3.436,3.827-5.263l1.5,0.608c-1.196,2.022-2.609,3.937-4.175,5.697c1.935,1.783,3.697,3.523,4.849,4.915
	L314.94,144.782z"/>
<path fill="#FFFFFF" d="M352.503,141.89c-2.261,1.066-4.719,2.153-6.588,3.001l-0.63-1.609c0.805-0.305,1.826-0.717,2.957-1.174
	v-6.74h-2.609v-1.545h2.609v-4.936h1.522v4.936h2.392v1.545h-2.392v6.11l2.392-1L352.503,141.89z M359.548,140.129
	c1.022,3.261,2.958,5.806,5.872,6.979c-0.37,0.349-0.87,1.001-1.131,1.436c-2.957-1.436-4.914-4.153-6.044-7.763
	c-0.652,3-2.327,5.719-6.393,7.763c-0.217-0.391-0.718-0.957-1.087-1.239c3.892-1.892,5.436-4.436,6.023-7.176h-4.262v-1.544h4.479
	c0.087-0.783,0.109-1.565,0.109-2.37v-2.393h-3.936v-1.521h3.936v-3.436h1.544v3.436h4.871v6.284h1.521v1.544H359.548z
	 M358.657,136.215c0,0.805-0.021,1.587-0.087,2.37h3.436v-4.763h-3.349V136.215z"/>
<path fill="#FFFFFF" d="M393.458,132.541c-0.457,1.065-1.021,2.022-1.608,2.805c-0.131-0.326-0.566-1.087-0.827-1.413
	c1.022-1.305,1.805-3.262,2.24-5.24l1.392,0.369c-0.174,0.674-0.369,1.392-0.63,2.065h3.196v1.414H393.458z M397.068,143.957
	c0.108,0.369,0.326,0.935,0.478,1.217c-3.261,2.263-3.784,2.676-4.088,3.066c-0.173-0.326-0.587-0.87-0.848-1.108
	c0.391-0.305,1.043-1.022,1.043-2.065v-4.306h-2.262v-1.414h2.262v-3h-1.348v-1.392h4.393v1.392h-1.588v3h2.24v1.414h-2.24v4.479
	L397.068,143.957z M400.569,144.696c0.413,0.174,0.826,0.544,1.435,0.935c1.087,0.674,2.392,0.87,4.088,0.87
	c1.413,0,3.675-0.087,5.11-0.283c-0.153,0.457-0.348,1.24-0.37,1.696c-1.152,0.065-3.435,0.131-4.783,0.131
	c-1.827,0-3.153-0.305-4.306-1.022c-0.74-0.521-1.348-1.044-1.783-1.044c-0.587,0-1.457,1.131-2.261,2.305l-1.043-1.456
	c0.826-0.913,1.674-1.674,2.435-2.045v-7.218h-1.565v-1.479h3.044V144.696z M399.352,133.802c-0.327-1.044-1.044-2.676-1.718-3.85
	l1.327-0.479c0.695,1.196,1.435,2.762,1.783,3.784L399.352,133.802z M405.679,141.978H401.2v-1.436h4.479v-2.936h-1.979
	c-0.827,0-1.458,0.131-1.653,0.304c-0.087-0.325-0.305-1.043-0.5-1.456c0.326-0.087,0.63-0.652,1-1.414
	c0.174-0.391,0.587-1.413,1-2.674H401.2v-1.457h2.827c0.218-0.762,0.392-1.565,0.543-2.326l1.609,0.304
	c-0.174,0.674-0.392,1.348-0.609,2.022h5.132v1.457h-5.61c-0.522,1.413-1.088,2.739-1.653,3.87h2.24v-2.588h1.543v2.588h3.088v1.37
	h-3.088v2.936h3.631v1.436h-3.631v3.631h-1.543V141.978z"/>
<path fill="#FFFFFF" d="M442.84,128.91c-0.371,1.065-0.762,2.261-1.131,3.196h3.609v14.111h-6.045v1.719h-1.479v-15.83h2.437
	c0.326-1.044,0.718-2.501,0.869-3.522L442.84,128.91z M443.84,133.563h-4.566v4.544h4.566V133.563z M443.84,144.761v-5.219h-4.566
	v5.219H443.84z M455.951,132.867c-0.348,9.915-0.631,13.265-1.501,14.329c-0.478,0.609-0.978,0.805-1.718,0.87
	c-0.761,0.088-2,0.044-3.218-0.021c-0.044-0.479-0.239-1.131-0.544-1.587c1.414,0.13,2.719,0.13,3.219,0.13
	c0.435,0,0.674-0.043,0.892-0.326c0.718-0.762,1.043-4.066,1.326-12.721h-5.523c-0.608,1.457-1.282,2.783-2.044,3.806
	c-0.282-0.261-0.979-0.696-1.326-0.914c1.457-1.913,2.631-4.914,3.326-7.893l1.545,0.37c-0.262,1.065-0.565,2.108-0.936,3.131h6.502
	V132.867z M451.146,142.673c-0.652-1.305-2.109-3.458-3.306-5.022l1.262-0.74c1.218,1.545,2.718,3.632,3.414,4.915L451.146,142.673z
	"/>
<path fill="#FFFFFF" d="M490.111,141.629c-0.369-0.718-1.282-2.131-2.022-3.239v10.067h-1.587v-9.611
	c-0.892,2.175-2.022,4.327-3.152,5.676c-0.153-0.436-0.544-1.088-0.805-1.457c1.369-1.544,2.892-4.327,3.739-6.828h-3.435v-1.522
	h3.652v-3.283c-1,0.195-2.022,0.37-2.979,0.5c-0.087-0.348-0.305-0.913-0.479-1.261c2.435-0.392,5.284-1.022,6.914-1.74l0.979,1.284
	c-0.805,0.325-1.806,0.63-2.85,0.869v3.631h3.196v1.522h-3.196v0.392c0.674,0.762,2.545,3.153,3.001,3.74L490.111,141.629z
	 M499.939,142.782v5.676h-1.587v-5.414l-7.089,1.174l-0.261-1.544l7.35-1.175v-12.872h1.587v12.612l2.545-0.392l0.238,1.479
	L499.939,142.782z M495.743,139.889c-0.783-0.956-2.457-2.304-3.827-3.174l1.001-0.957c1.392,0.848,3.088,2.132,3.892,3.066
	L495.743,139.889z M496.222,134.15c-0.675-0.914-2.175-2.196-3.458-3.088l1.022-0.936c1.305,0.826,2.827,2.066,3.545,2.979
	L496.222,134.15z"/>
<path fill="#FFFFFF" d="M535.644,139.607c-0.869,0.262-1.762,0.522-2.609,0.783v6.154c0,0.913-0.24,1.348-0.805,1.609
	c-0.543,0.26-1.457,0.304-2.936,0.282c-0.065-0.413-0.304-1.044-0.521-1.479c1.043,0.021,1.979,0.021,2.239,0
	c0.326,0,0.435-0.109,0.435-0.413v-5.676l-2.609,0.761l-0.456-1.587c0.869-0.195,1.913-0.457,3.065-0.783v-4.74h-2.783v-1.521h2.783
	v-4.35h1.588v4.35h2.414v1.521h-2.414v4.306c0.782-0.218,1.609-0.456,2.414-0.696L535.644,139.607z M547.212,137.172
	c-0.914,2.979-2.458,5.349-4.415,7.153c1.565,1.283,3.437,2.219,5.61,2.806c-0.349,0.326-0.805,0.956-1.044,1.392
	c-2.261-0.696-4.197-1.74-5.806-3.153c-1.849,1.413-3.958,2.413-6.176,3.109c-0.174-0.435-0.565-1.109-0.869-1.457
	c2.109-0.564,4.132-1.479,5.893-2.761c-1.522-1.631-2.719-3.632-3.565-5.959l0.064-0.021h-0.718v-1.501h4.654v-3.24h-5.089v-1.5
	h5.089v-3.414h1.587v3.414h5.197v1.5h-5.197v3.24h3.457l0.261-0.065L547.212,137.172z M538.427,138.282
	c0.739,1.892,1.827,3.608,3.196,5c1.501-1.348,2.719-3.021,3.501-5H538.427z"/>
<path fill="#FFFFFF" d="M581.915,146.565c0,0.871-0.174,1.349-0.739,1.632c-0.543,0.282-1.413,0.304-2.87,0.304
	c-0.043-0.413-0.261-1.131-0.479-1.543c1.001,0.021,1.914,0.021,2.175,0c0.304-0.022,0.413-0.109,0.413-0.413v-5.35h-3.414
	c-0.196,2.566-0.63,5.283-1.631,7.328c-0.282-0.262-0.935-0.631-1.326-0.783c1.5-3.044,1.609-7.35,1.609-10.546v-7.763h6.262
	V146.565z M580.415,139.651v-3.653h-3.283v1.196c0,0.739-0.022,1.588-0.044,2.457H580.415z M577.132,130.931v3.566h3.283v-3.566
	H577.132z M593.614,137.106c-0.566,2.958-1.609,5.394-2.979,7.329c1.044,1.195,2.262,2.174,3.631,2.848
	c-0.369,0.305-0.805,0.849-1.043,1.24c-1.305-0.74-2.479-1.718-3.522-2.937c-0.979,1.153-2.088,2.088-3.284,2.783
	c-0.217-0.369-0.631-0.912-0.957-1.195c1.196-0.652,2.327-1.588,3.328-2.762c-1.219-1.761-2.175-3.848-2.893-6.088h-0.543V148.5
	h-1.522v-19.004h9.176v4.175c0,0.826-0.195,1.239-0.849,1.479c-0.695,0.218-1.783,0.218-3.413,0.218
	c-0.065-0.436-0.304-0.979-0.522-1.37c1.326,0.021,2.458,0.021,2.783,0c0.348,0,0.436-0.088,0.436-0.349v-2.652h-6.088v5.827h7.045
	l0.282-0.043L593.614,137.106z M587.308,138.325c0.588,1.782,1.37,3.436,2.37,4.87c0.936-1.392,1.674-3.021,2.175-4.87H587.308z"/>
<path fill="#FFFFFF" d="M637.646,131.454c-1.305,1.956-3.328,3.457-5.72,4.632c2.262,0.695,4.959,1.087,7.85,1.261
	c-0.325,0.369-0.695,1-0.892,1.456c-3.326-0.282-6.349-0.869-8.871-1.912c-2.892,1.13-6.153,1.782-9.307,2.174
	c-0.108-0.413-0.391-1.044-0.652-1.413c2.762-0.261,5.61-0.783,8.176-1.609c-1.261-0.696-2.348-1.544-3.239-2.565
	c-0.87,0.718-1.87,1.369-2.979,2c-0.218-0.37-0.652-0.936-1-1.195c3.044-1.545,5.197-3.784,6.306-5.676l1.695,0.348
	c-0.412,0.631-0.869,1.282-1.391,1.913h8.763l0.283-0.086L637.646,131.454z M637.819,140.694c0,0-0.021,0.501-0.086,0.718
	c-0.457,3.937-0.957,5.566-1.696,6.241c-0.479,0.435-0.957,0.544-1.761,0.587c-0.632,0.021-1.937,0.021-3.219-0.065
	c-0.022-0.435-0.218-1.021-0.5-1.435c1.369,0.13,2.74,0.151,3.283,0.151c0.436,0,0.695-0.021,0.936-0.195
	c0.5-0.413,0.934-1.739,1.305-4.588h-6.589c-1.37,3.501-4.045,5.328-8.307,6.35c-0.174-0.37-0.587-1.044-0.892-1.37
	c3.827-0.739,6.24-2.196,7.48-4.979h-5.98v-1.414h6.48c0.174-0.651,0.326-1.369,0.413-2.152l1.674,0.131
	c-0.108,0.717-0.26,1.413-0.413,2.021H637.819z M626.034,132.562c0.957,1.196,2.327,2.132,4.001,2.849
	c2.045-0.826,3.827-1.87,5.11-3.153h-8.785L626.034,132.562z"/>
<path fill="#FFFFFF" d="M675.122,139.02c-0.631-0.543-2.239-1.696-3.327-2.435c-0.739,1.238-2.044,2.457-4.327,3.5
	c-0.195-0.348-0.652-0.87-1.022-1.108c2.762-1.087,3.914-2.522,4.371-3.85h-4.175v-1.325h4.457c0.044-0.283,0.044-0.522,0.044-0.784
	v-1.261h-1.827c-0.413,0.74-0.892,1.414-1.369,1.936c-0.305-0.217-0.936-0.608-1.305-0.783c1.108-1.065,1.957-2.695,2.457-4.326
	l1.457,0.282c-0.153,0.544-0.369,1.065-0.587,1.587h5.914v1.305h-3.196v1.261c0,0.262,0,0.501-0.044,0.784h3.784v1.325h-4.023
	c-0.021,0.131-0.064,0.24-0.108,0.37c0.848,0.457,3.349,1.979,3.958,2.413L675.122,139.02z M669.795,139.585h13.264v8.872h-1.631
	v-0.762h-10.046v0.805h-1.587V139.585z M671.382,140.912v2.045h10.046v-2.045H671.382z M681.428,146.37v-2.152h-10.046v2.152
	H681.428z M684.907,130.388v7.545h-7.589v-7.545H684.907z M683.319,131.844h-4.479v4.61h4.479V131.844z"/>
<path fill="#FFFFFF" d="M715.653,135.063h-3.741v-1.065h3.741v-1.044h-2.979v-1.065h2.979v-1.044h-3.479v-1.065h3.479v-1.131h1.5
	v1.131h3.065v1.065h-3.065v1.044h2.762v1.065h-2.762v1.044h3.349v1.065h-3.349v1.174h-1.5V135.063z M711.979,147.153
	c0.782-0.936,1.479-2.436,1.87-3.588l1.348,0.565c-0.435,1.218-1.044,2.805-1.826,3.806L711.979,147.153z M728.635,142.477H713.5
	v-1.13h13.548v-1.327h-12.743v-1.064h12.743v-1.262h-13.417v-1.131h15.004V142.477z M724.198,146.827c1,0,1.174-0.239,1.283-2.065
	c0.348,0.238,0.978,0.456,1.436,0.521c-0.218,2.349-0.718,2.914-2.609,2.914h-4.72c-2.412,0-3.043-0.414-3.043-1.979v-2.827h1.587
	v2.806c0,0.544,0.218,0.631,1.544,0.631H724.198z M720.72,142.565c1.044,0.587,2.305,1.521,2.914,2.239l-1.045,0.913
	c-0.564-0.695-1.782-1.674-2.848-2.327L720.72,142.565z M725.003,135.106h-3.696v-1.065h3.696v-1.087h-2.957v-1.065h2.957v-1.044
	h-3.457v-1.065h3.457v-1.131h1.522v1.131h3.609v1.065h-3.609v1.044h3.262v1.065h-3.262v1.087h4.001v1.065h-4.001v1.131h-1.522
	V135.106z M728.656,143.37c0.935,1.217,1.935,2.892,2.305,4l-1.521,0.5c-0.37-1.108-1.327-2.804-2.24-4.065L728.656,143.37z"/>
<path fill="#FFFFFF" d="M763.208,145.673c1.305,0.522,2.979,0.696,5.131,0.696c1.066,0.021,7.676,0.021,9.024-0.043
	c-0.283,0.392-0.566,1.131-0.675,1.609h-8.306c-4.632,0-7.197-0.718-8.785-3.675c-0.261,1.652-0.631,3.088-1.282,4.262
	c-0.262-0.196-0.914-0.609-1.283-0.783c1.239-2.174,1.456-5.566,1.5-9.371l1.479,0.087c-0.021,1.064-0.065,2.109-0.131,3.087
	c0.457,1.435,1.045,2.479,1.87,3.239v-7.979h-4.175v-1.435h3.87v-2.675h-3.457v-1.436h3.457v-2.609h1.501v2.609h3.392v1.436h-3.392
	v2.675h3.827v0.935c1.935-1.108,2.957-2.805,3.262-5.371h-3.022v-1.392h9.502c0,0,0,0.457-0.021,0.675
	c-0.196,3.87-0.392,5.392-0.87,5.936c-0.326,0.369-0.718,0.5-1.261,0.544c-0.5,0.065-1.413,0.043-2.37,0
	c-0.044-0.435-0.196-1-0.413-1.392c0.892,0.087,1.739,0.087,2.065,0.087c0.305,0.021,0.522-0.021,0.652-0.195
	c0.283-0.326,0.479-1.436,0.631-4.263h-3.327c-0.435,3.24-1.783,5.263-4.109,6.633c-0.175-0.196-0.544-0.522-0.87-0.762h-3.413
	v3.087h3.37v1.436h-3.37V145.673z M767.729,137.89h8.285v6.696h-8.285V137.89z M769.252,143.239h5.176v-4.001h-5.176V143.239z"/>
<path fill="#FFFFFF" d="M813.687,133.389v2.935h7.045v7.611c0,0.935-0.217,1.413-0.913,1.695c-0.739,0.261-1.957,0.283-3.806,0.283
	c-0.065-0.5-0.348-1.152-0.565-1.609c1.479,0.044,2.783,0.044,3.153,0.044c0.392-0.044,0.5-0.131,0.5-0.436v-6.002h-5.414v10.547
	h-1.632v-10.547h-5.087v8.067h-1.609v-9.654h6.696v-2.935h-8.806v-1.588h9.263c-0.348-0.849-0.935-1.979-1.435-2.849l1.544-0.479
	c0.651,1,1.392,2.37,1.696,3.219l-0.283,0.108h8.633v1.588H813.687z"/>
</svg>
